# xmcd CD database file
#
# Track frame offsets:
#	182
#	12411
#	23613
#	36267
#	47815
#	60732
#	75160
#	91794
#	107506
#	116615
#	127179
#	140672
#	151823
#	160600
#	171414
#	182770
#	194375
#	206055
#	217543
#	231241
#	241640
#	256060
#	267928
#
# Disc length: 3780 seconds
#
# Revision: 1
# Processed by: cddbd v1.5.1PL2 Copyright (c) Steve Scherf et al.
# Submitted via: CDex 1.51
#
DISCID=290ec217
DTITLE=B. B. King - The Chronological  B. B. King 1949-1952
DYEAR=2003
DGENRE=Blues
TTITLE0=Miss Martha King
TTITLE1=When Your Baby Packs Up And Goes
TTITLE2=Got The Blues
TTITLE3=Take A Swing With Me
TTITLE4=Mistreated Woman
TTITLE5=B. B. Boogie
TTITLE6=The Other Night Blues
TTITLE7=Walkin' And Cryin'
TTITLE8=My Baby's Gone
TTITLE9=Don't You Want A Man Like Me
TTITLE10=Questionaire Blues
TTITLE11=B. B. Blues
TTITLE12=A New Way Of Driving
TTITLE13=Fine Lookin' Woman
TTITLE14=She's Dynamite
TTITLE15=She's A Mean Woman
TTITLE16=Hard Workin' Woman
TTITLE17=Pray For You
TTITLE18=3 O'Clock Blues
TTITLE19=That Ain't The Way To Do It
TTITLE20=She Don't Move Me No More
TTITLE21=Shake It Up And Go
TTITLE22=My own fault, darlin'
EXTD=YEAR: 2003
EXTT0=
EXTT1=
EXTT2=
EXTT3=
EXTT4=
EXTT5=
EXTT6=
EXTT7=
EXTT8=
EXTT9=
EXTT10=
EXTT11=
EXTT12=
EXTT13=
EXTT14=
EXTT15=
EXTT16=
EXTT17=
EXTT18=
EXTT19=
EXTT20=
EXTT21=
EXTT22=
PLAYORDER=
